<?xml version="1.0" encoding="UTF-8"?>
<svg width="24px" height="24px" viewBox="0 0 24 24" version="1.1" xmlns="http://www.w3.org/2000/svg" xmlns:xlink="http://www.w3.org/1999/xlink">
    <title>编组</title>
    <g id="门户" stroke="none" stroke-width="1" fill="none" fill-rule="evenodd">
        <g id="订单支付" transform="translate(-583.000000, -844.000000)" fill-rule="nonzero">
            <g id="余额支付" transform="translate(534.000000, 826.000000)">
                <g id="编组-5" transform="translate(49.000000, 17.500000)">
                    <g id="编组" transform="translate(0.000000, 0.500000)">
                        <path d="M0,12 C0,18.627417 5.372583,24 12,24 C18.627417,24 24,18.627417 24,12 C24,5.372583 18.627417,0 12,0 C5.372583,0 0,5.372583 0,12 Z" id="路径" fill="#007AFF"></path>
                        <path d="M15.2545145,7.83100511 C18.4109029,3.80783646 14.7488927,3.56660988 13.9052811,3.87734242 C12.8204429,2.86337308 11.1822828,2.9165247 10.0988075,3.94957411 C4.99080068,3.24906303 8.41158433,7.83100511 8.41158433,7.83100511 C3.59931857,10.7284497 3.82282794,14.6030664 4.02589438,16.553322 C4.27666099,18.9574106 6.65758092,19.0773424 6.65758092,19.0773424 L17.8194208,19.0773424 C19.1741056,19.0773424 19.7710392,17.6858603 19.9522998,16.6010221 C20.6391823,10.9274276 17.7594549,9.61362862 15.2545145,7.83100511 Z M15.5597956,14.676661 C15.8855196,14.676661 16.1499148,15.0146508 16.1499148,15.3403748 C16.1499148,15.6660988 15.8855196,15.9918228 15.5597956,15.9918228 L12.6255537,15.9918228 L12.6255537,17.1366269 C12.6255537,17.4623509 12.3229983,17.7267462 11.9972743,17.7267462 C11.6715503,17.7267462 11.3730835,17.4623509 11.3730835,17.1366269 L11.3730835,15.9918228 L8.43339012,15.9918228 C8.1076661,15.9918228 7.84327087,15.6374787 7.84327087,15.3117547 C7.84327087,14.9860307 8.1076661,14.6752981 8.43339012,14.6752981 L11.3717206,14.6752981 L11.3717206,13.60954 L8.43339012,13.60954 C8.1076661,13.60954 7.84599659,13.2620102 7.84599659,12.9362862 C7.84599659,12.6105622 8.1076661,12.2930153 8.43339012,12.2930153 L10.8906303,12.2930153 L9.14616695,10.7216354 C9.02981861,10.6170793 8.95983753,10.4705375 8.95165625,10.3143262 C8.94347497,10.1581148 8.99776547,10.0050646 9.10255537,9.88892675 C9.20711149,9.77257841 9.35365326,9.70259732 9.50986461,9.69441604 C9.66607596,9.68623476 9.81912622,9.74052526 9.93526405,9.84531516 L12.0040886,11.7083475 L14.113799,9.84122658 C14.3577513,9.62589438 14.7311755,9.64770017 14.9465077,9.89165247 C15.1618399,10.1356048 15.1400341,10.509029 14.8960818,10.7243612 L13.1243612,12.2916525 L15.5597956,12.2916525 C15.8855196,12.2916525 16.1499148,12.6078365 16.1499148,12.9335605 C16.1499148,13.2592845 15.8855196,13.6081772 15.5597956,13.6081772 L12.6255537,13.6081772 L12.6255537,14.6739353 L15.5597956,14.6739353 L15.5597956,14.676661 Z" id="形状" fill="#FFFFFF"></path>
                    </g>
                </g>
            </g>
        </g>
    </g>
</svg>